<svg xmlns="http://www.w3.org/2000/svg" width="256" height="256" viewBox="0 0 128 128" fill="#000000"><path fill="#000000" d="M96.265 1.102a12.7 12.7 0 0 0-4.187.84q-.936.36-2.678 1.438a87 87 0 0 1-2.625 1.56a429 429 0 0 1-3.244 2.906a19.4 19.4 0 0 0-2.74 3.499a.324.255 57 0 0-.021.238q.066.222-.116.267a.14.45 83 0 0-.232.104a3.93 3.93 0 0 0-1.055 1.896q-.104.42-.342.844a2.9 2.9 0 0 0-.336.818q-.105.534-.207 1.067a.83.83 0 0 1-.453.539a60.9 60.9 0 0 0-19.43-2.285a4 4 0 0 0-.855.127q-.42.112-.836.246a57.5 57.5 0 0 0-20.091 4.732a2.35 2.35 0 0 1-1.108-.982l-.384-.653a25.2 25.2 0 0 0-3.565-4.066q-.671-.844-2.223-1.79q-3.64-2.22-7.464-2.337l-.586.027a2.3 2.3 0 0 1-.78-.1a3.5 3.5 0 0 0-2.033.565l-.814.526q-3.186 1.84-5.03 4.945q-2.097 3.54-3.04 7.728q-.582 2.572-.454 5.702q.113.28.165.576q.042.232-.053.578a3.8 3.8 0 0 0-.133.97q-.006.36.225.926q.47 1.16.332 2.434q.762 3.34 1.203 4.951q.118.432.011.736l-.289.602a10.1 10.1 0 0 0-1.82 2.236q-.878 1.464-.926 1.541q-.534.873-.94 1.824a48.9 48.9 0 0 0-6.454 18.56a5.85 5.85 0 0 0-.352 2.393a29 29 0 0 0-.29 5.092l.099 3.063q.031 2.783.191 3.818a55.7 55.7 0 0 0 2.29 9.348l.32.55a54.4 54.4 0 0 0 3.56 8.412q1.089 2.066 1.672 2.81a46 46 0 0 0 3.115 4.485l.764 1.026q.676.903 1.539 1.646q.907 1.102 1.807 2.207a73 73 0 0 1 2.982 2.637q1.454 1.356 2.63 2.146a55 55 0 0 0 5.057 3.008a77 77 0 0 0 3.844 2.578q1.218.883 2.846 1.504q3.332 1.275 6.168 2.057q1.05.288 2.82 1.144a.469.487 56.3 0 0 .258.047a8 8 0 0 1 1.672.012q1.311.332 2.625.654q1.093.265 8.545.762a30 30 0 0 0 4.148-.01a52 52 0 0 0 8.16-.217q1.245-.131 3.047-.547a100 100 0 0 1 3.039-.642a28 28 0 0 1 3.344-1.002a183 183 0 0 1 5.234-2.141q.736-.29 1.717-.88q.95-.575 1.761-.843q1.924-.631 3.3-1.675q.408-.31.97-.487a5.1 5.1 0 0 0 1.615-.85a29 29 0 0 0 3.516-2.156a65 65 0 0 0 3.265-2.51a40.3 40.3 0 0 0 5.211-5.081a7.6 7.6 0 0 1 1.637-1.438a32 32 0 0 0 2.193-2.824a54 54 0 0 0 8.026-13.512q.302-.54.564-1.097q.171-.362.324-1.172a4 4 0 0 1 .319-.992q.174-.37.265-.858a2.8 2.8 0 0 1 .313-.861q.26-.455.318-.771q.078-.422.147-.842a.383.289 40.3 0 0-.053-.24q-.252-.42.21-.659a1.96 1.96 0 0 0 .362-1.256a.485.428 60.6 0 1 .055-.248a3.86 3.86 0 0 0 .47-1.824q.484-2.703.692-5.435q.003-.01.164-1.16q.09-.645-.002-1.348a14 14 0 0 1-.05-3.16a3.54 3.54 0 0 1-.03-1.612a.439.396 42 0 0-.027-.25q-.09-.219-.123-.453q-.027-.18.076-.576q.093-.353-.014-.603a3.8 3.8 0 0 1-.285-1.328a.24.24 0 0 1 .22-.247a6.2 6.2 0 0 0 3.06-1.078a21 21 0 0 0 1.857-1.427a3.3 3.3 0 0 0 1.568-1.707q.378-.51.715-1.04a.378.303 61.1 0 0 .043-.246q-.064-.381.22-.513a.24.466 79.6 0 0 .2-.155a8.7 8.7 0 0 0 1.306-5.07a.6.6 0 0 1 .053-.25a.63.63 0 0 0 .025-.478l-.123-.364a9.6 9.6 0 0 0-1.205-3.015a.76.76 0 0 0-.261-.264q-.565-.343-.653-.652a.597.6 6.8 0 0-.277-.352a16 16 0 0 1-2.281-1.582q-.384-.32-1.924-.683q-.696.012-1.389-.053q-1.017-.093-1.375-.068a6.6 6.6 0 0 0-2.804.84a25 25 0 0 0-2.352.849a.15.148 64.5 0 1-.187-.066A59.3 59.3 0 0 0 102.937 31.9q-.346-.346-.156-.815l1.67-4.115q1.758-4.596 2.275-9.775q.503-5.044-1.22-9.617a3.6 3.6 0 0 0-.319-.56q-1.774-3.454-5.113-5.202h-.002a6.1 6.1 0 0 0-2.355-.677a13 13 0 0 0-1.452-.038Zm-.667 1.834l.242.008a8 8 0 0 1 1.408.184a8 8 0 0 1 .904.265a8 8 0 0 1 .873.377a8 8 0 0 0-.873-.377a7.7 7.7 0 0 0-2.312-.449zm6.656 3.358a1 1 0 0 1 .031.21a.4.4 0 0 1-.035.159a.26.26 0 0 1-.1.11q-.016.009-.035.017q-.018.01-.04.017q.022-.007.04-.017q.019-.008.035-.018a.26.26 0 0 0 .1-.11a.3.3 0 0 0 .025-.071a.5.5 0 0 0 .002-.186a1 1 0 0 0-.023-.111m-8.472 1.391a9 9 0 0 0-.81.045h-.001q.399-.042.81-.046zm.837.029a9 9 0 0 1 1.68.29a7.6 7.6 0 0 1 2.861 1.488v.001a7.6 7.6 0 0 0-2.861-1.488a9 9 0 0 0-1.68-.291m-3.2.33a8.4 8.4 0 0 0-2.812 1.523q-1.035.841-2.056 1.703a13.8 13.8 0 0 0-2.29 2.451a14 14 0 0 0-1.624 2.94l-1.08 2.728l1.078-2.728q.647-1.59 1.627-2.94a13.8 13.8 0 0 1 2.287-2.453q1.022-.86 2.058-1.7a8.4 8.4 0 0 1 2.813-1.524zm-6.31.59a.2.2 0 0 0 .006.068a.1.1 0 0 0 .026.045a.1.1 0 0 1-.026-.045a.2.2 0 0 1-.006-.068m9.143.482q1.923-.039 3.523 1.092q.56.393.89 1.101a21.7 21.7 0 0 1 1.438 4.024l.24 1.931a.463.19 40.7 0 0 .118.23q.302.375.02.806q-.478.72-.286 1.705a.838.833 59.2 0 1-.168.68a.74.74 0 0 0-.115.792q-.41.364-.268.87l-.199.935l-.267.67a.34.34 0 0 1-.088.199l.004.012l-.006-.012a.9.9 0 0 0 .09.803q-.72.54-.87 1.404h-.002a2.15 2.15 0 0 0-.068.883q.06.53-.348.191q-6.69-5.54-14.638-8.558a.123.089 11.3 0 1-.074-.08l-.008-.059l1.338-2.074q2.793-4.484 7.408-6.873q1.252-.648 2.336-.672m-71.933 2.805q-.905.094-1.102.091q.196.003 1.102-.091m77.892.123h.01v.002zm-77.068.781a.3.401 46.9 0 1 .117.01a.3.401 46.9 0 0-.242.027a.3.401 46.9 0 1 .125-.037m78.201.234q.125.073.15.17q.024.099-.053.221q.075-.123.053-.22q-.025-.098-.15-.17zm-76.5.047l.076.008l.053.018q-.026-.009-.053-.016zm2.651.407l.035.013l.011.002h-.011zm78.642.162l.027.072l.014.06l-.014-.06zm.009.392l-.027.055l-.045.064l.045-.064zm-.328.569l-.014.05q.005-.026.014-.05m-.043.234v.057zm-4.736.185q-.071.266.168.51q-.24-.245-.168-.51m4.756.051l.006.03q.141.582.24 1.175h-.002a16 16 0 0 0-.24-1.175zm-25.902.151a.5.5 0 0 0 .09.13q.152.157.402.061q-.249.096-.403-.06a.5.5 0 0 1-.09-.131zm.732.164a.262.439 53 0 1 .008 0c.03.007.058.019.088.027l-.088-.025a.262.439 53 0 0-.008-.002m-16.379.353a2 2 0 0 0-.24.01q.116-.015.24-.01m17.436.086q.05.031.1.065q-.05-.034-.1-.065m-25.213.143a8 8 0 0 1-.754.013a8 8 0 0 0 .754-.013m48.517.513q.119.064.14.157q.024.09-.048.209q.072-.118.049-.21q-.023-.09-.14-.156zm0 0a.6.6 0 0 0-.377.246q-.155.208-.246.58q.09-.373.246-.58a.6.6 0 0 1 .377-.246m-56.788.68q-.478.083-3.604 1.049q3.128-.966 3.603-1.049zm57.423.008a.1.1 0 0 1 .056.002q-.112-.028-.283.158q.13-.142.227-.16m.062.002q.112.032.164.281q.072.341.057.67t-.115.645a7.7 7.7 0 0 1-.334 2.347q-.07.23-.434.817q.364-.585.434-.817q.347-1.137.334-2.347a2.53 2.53 0 0 0 .058-1.315q-.053-.25-.164-.281m-26.501.014a.6.6 0 0 1-.059.168a.2.2 0 0 1-.039.05a.13.13 0 0 1-.104.032q-.02-.004-.043-.014q.023.01.043.014a.13.13 0 0 0 .104-.032a.2.2 0 0 0 .039-.05a.6.6 0 0 0 .059-.168m-1.024.127a.63.63 0 0 1-.072.394a.7.7 0 0 0 .068-.195a.6.6 0 0 0 .004-.2zm-17.185.146l.033.002l-.068.002zm-2.674.021l.033.002l-.066.002zm3.713.024l.031.002h.002v.002zm-2.072.043l-.036.006l-.02-.002h.018zm-4.72.015a1.1 1.1 0 0 1-.204.266q-.209.188-.436.06q.228.128.436-.06q.106-.093.205-.266zm1.253.036a.223.287 66.4 0 0 .232.058a.223.287 66.4 0 1-.232-.058m10.256.002l.136.003zm-1.793.013H65l-.064.002zm3.642.113l.127.014zm-15.043.04a.233.294 20.7 0 1-.2.12a.233.294 20.7 0 0 .2-.12m4.51.03a25 25 0 0 0-1.648.26a25 25 0 0 0 .896-.156q.375-.057.752-.103zm19.91.1q.544.22 1.078.47q.335.058.637.155a5 5 0 0 0-.637-.156a22 22 0 0 0-1.078-.469m-28.261.08a.195.185 43.5 0 1 .005 0a.195.185 43.5 0 0-.005.002zm.21 0a.195.185 43.5 0 1 .006 0q.235.157.51.204l.053-.006l-.05.007a1.3 1.3 0 0 1-.513-.203a.195.185 43.5 0 0-.005-.002zm14.108.133q.015.013.015.028t-.015.03a.2.2 0 0 1-.049.036a.2.2 0 0 0 .049-.035q.015-.017.015-.031q0-.016-.015-.028m3.238.082q.03.008.059.02q-.028-.012-.059-.02m-10.722.506a52 52 0 0 0-9.4 1.742q-2.703.346-4.436.85a12 12 0 0 0-1.05.355c-.008.004-.012.003-.02.006l.02-.007a12 12 0 0 1 1.05-.354q1.734-.505 4.435-.85a52 52 0 0 1 9.4-1.742zm-43.227.07a.353.396 28.7 0 0 .057.243a.353.396 28.7 0 1-.057-.243m37.014.12a.2.2 0 0 0-.069.013a.15.15 0 0 1 .069-.013m-4.237.392l-.084.028zm-32.583.164l-.006.024zm67.901.047l-.017.004zm19.494.063a.7.7 0 0 0-.167.232a.4.4 0 0 0-.02.232a.4.4 0 0 1 .02-.232a.7.7 0 0 1 .167-.232m-56.4.326l-.039.015l-.021.002l.021-.003zm59.523.297q-.032.33-.011.802l-.002.038v-.036a6 6 0 0 1 .013-.804m-60.923.289h.014zm-19.916.547a.305.24 39.6 0 1 .125.029q.273.123.686.066q.219-.028.508.09a2.2 2.2 0 0 0 .476.149q2.968.495 4.55 3.056q.17.274.675.518l2.965 3.345l2 2.944a.228.23 42.1 0 1 .011.238a2.94 2.94 0 0 1-1.084 1.15a.125.152 61.6 0 1-.2-.04l-.192-.413q-.005-.407-.336-.545a.235.273 41.8 0 0-.239.032q-1.215.794.028 1.638v.002q.099.073.078.211a.8.8 0 0 0-.22.336l.007.031l-.01-.03l-1.217 1.13a.281.284 58.5 0 1-.459-.107l-.433-1.215a.198.166 77.9 0 0-.17-.131q-.835.02-.48.877a4.6 4.6 0 0 1 .345 1.633a.383.39 61.4 0 1-.076.242a9 9 0 0 1-1.94 1.973a.132.166 53.4 0 1-.21-.004q-.103-.138-.09-.452a.24.24 0 0 0-.299-.246q-1.457.364-.176 1.303l-.28.613l-1.927 1.817a1.8 1.8 0 0 1-.402-.813a2.86 2.86 0 0 0-.582-1.306a.098.098 0 0 0-.162.01a1.8 1.8 0 0 0-.213.439q-.06.186-.21.437q-.242.409.276.536a.137.15 4.1 0 1 .104.13l.129 1.493q-.25 1.201-1.471 1.271a2.96 2.96 0 0 0-.613-1.488a.171.166 56.4 0 0-.21-.045q-.472.248-.14.812q.229.868.494 1.725q-.714.719-1.74.668a18 18 0 0 1-1.264-2.96a3.8 3.8 0 0 1-.474-1.52l-.29-.67a1.14 1.14 0 0 1-.519.033a.54.54 0 0 1-.336-.22q-.104-.149-.254-.706a3.6 3.6 0 0 1-.103-.59a4 4 0 0 1-.008-.627a4 4 0 0 0 .008.627q.028.305.103.59q.15.558.254.705a.54.54 0 0 0 .336.22q.213.047.52-.032h.002a3.7 3.7 0 0 0-.17-.819a3 3 0 0 1-.174-.8a20.3 20.3 0 0 0-.566-3.815q-.105-.425-.16-1.455c-.01.003-.02.001-.03.004l.027-.006a3.1 3.1 0 0 0-.144-1.342a.54.54 0 0 1-.018-.262q.183-.96.174-1.941a1.6 1.6 0 0 0-.137-1.088a.193.203 50.8 0 1 .028-.215a.74.74 0 0 0 .19-.61a1.8 1.8 0 0 1 .107-.954a18 18 0 0 1 1.427-2.879a4.1 4.1 0 0 1 1.178-1.234a23 23 0 0 1 2.504-1.52a.305.24 39.6 0 1 .113-.023m5.668.043q.258.349.533.681q.143.17.635.56q-.492-.39-.635-.56q-.275-.33-.533-.681m27.936.037q.528-.042.98.424a7.3 7.3 0 0 1 1.373 1.998q.046.1.16.2q.287.264.412.805q.169.734.608 1.39a.223.223 0 0 1-.145.34q-.705.126-1.06-.368a38 38 0 0 0-.487-.674a11.5 11.5 0 0 1-2.363-3.658a.287.284 68.4 0 1 .16-.373q.185-.07.362-.084m-15.882.281l.009.037zm.122.266q.005.006.012.011q-.007-.005-.012-.011m.244.087h.03zm-2.344.084l-.033.018l-.025.008c.01-.003.013-.007.023-.01zm-.488.288l-.002.005l-.002-.002zm-1.873.279a.364.385 67.6 0 1 .383.148v.002a.364.385 67.6 0 0-.383-.148l-1.336.267a1 1 0 0 1-.291.028q-.105-.01-.127-.067q.022.057.127.067q.105.008.291-.03zm49.88.105c.036.016.08.03.116.045a34 34 0 0 1 3.55 1.772q.696.401 3.403 2.043a253 253 0 0 0-3.405-2.041a34 34 0 0 0-1.748-.94a34 34 0 0 0-1.8-.832zm13.327.726q.066.07.115.108q.049.04.08.053a.3.3 0 0 1-.08-.053a2 2 0 0 1-.115-.107zm-70.037.022a.2.2 0 0 0-.064.023a.2.2 0 0 1 .064-.023m.076.002q.167.027.443.239q-.276-.211-.443-.239m-.224.135a.235.201 33.3 0 0 .066.227a.235.201 33.3 0 1-.066-.227m8.019 0v.002zm1.496.033c.07.148.137.296.225.434c.229.446.476.882.72 1.32c-.244-.438-.493-.873-.722-1.32c-.088-.138-.153-.287-.223-.434m-8.846.07q.112.083.227.157q1.014.637 1.453 1.242q-.44-.604-1.453-1.24a4 4 0 0 1-.227-.158zm7.996.032a.148.184 64.9 0 1 .204.047v.002a.148.184 64.9 0 0-.204-.05zm62.365.002l.012.004zm-25.06.46a.7.7 0 0 1 .281.136q.297.226.432.82q.84 3.762.832 3.814q-.09.642.254 1.16a.26.212 42.8 0 1 .03.233q-.241.53-.839.508a.223.201 79.1 0 1-.184-.139a7.3 7.3 0 0 1-.533-2.098a23 23 0 0 1-1.18-3.388a.605.594 54.1 0 1 .073-.475q.412-.65.834-.57zm24.185.052a.1.1 0 0 1 .053.006a.1.1 0 0 0-.053-.006m-7.273.185a17.3 17.3 0 0 1 3.512 2.377a17.4 17.4 0 0 0-3.512-2.377m-45.512.002a.174.16 35.4 0 1 .149.053q.79.766 1.402 1.691q.267.405.864 1.19q.452.587.757 1.277q.393.894-.535.402a6.6 6.6 0 0 1-1.271-.869q-.653-.564-1.856-2.576a.294.198 48.5 0 1-.033-.244l.402-.838a.174.16 35.4 0 1 .121-.086m52.205.031l.008.01h-.002zm-60.744.346a.7.7 0 0 0 .24.067a.372.375 85.6 0 1 .317.271a.372.375 85.6 0 0-.316-.27a.7.7 0 0 1-.24-.068zm-26.673.108c-.099.38-.278 1.545-.526 3.402q.374-2.81.526-3.402m87.724.787a.3.3 0 0 0-.069.101a.2.2 0 0 0-.013.106a.2.2 0 0 1 .013-.106a.3.3 0 0 1 .069-.101m-59.023.416a.262.223 45.9 0 1 .015.222q-.1.19-.253.21q.152-.02.251-.21a.262.223 45.9 0 0-.013-.222m60.847.314a3.7 3.7 0 0 0 .752.537a3.4 3.4 0 0 0-.389-.24a4 4 0 0 1-.363-.297m-68.353.07q.157.13.312.432q.157.303.313.777a.455.453 10 0 0 .148.21a2.55 2.55 0 0 1 .936 1.605a2.55 2.55 0 0 0-.937-1.605a.455.453 10 0 1-.147-.21a5.4 5.4 0 0 0-.313-.777q-.156-.302-.312-.432m66.21.407a.8.8 0 0 1-.105.234a.6.6 0 0 0-.076.15q-.03.102.017.172q-.047-.07-.017-.172a.6.6 0 0 1 .074-.15a.8.8 0 0 0 .107-.234m-.123.599a.4.4 0 0 0 .131.067a.289.254 33.3 0 0 .248-.035a.289.254 33.3 0 1-.248.035a.4.4 0 0 1-.13-.067zm-32.329.762a.4.4 0 0 1 .205.068a.182.255 15.5 0 1 .08.221q-.075.64.271 1.094q.537.708.553.74q.252.566.416 1.393q.048.245.205.435q.58.693.646 1.541q.03.39-.312.201a1.06 1.06 0 0 1-.459-.484a12 12 0 0 0-.28-.573a9 9 0 0 1-.603-1.085a7.4 7.4 0 0 1-1.29-3.414a.091.115 4.4 0 1 .12-.131l.08.035a.207.118 32.8 0 0 .145.006a.5.5 0 0 1 .223-.047m-55.494.154v.002h-.01zm5.865.26a.5.5 0 0 1 .19.07a.305.276 11.3 0 1 .146.198a.305.276 11.3 0 0-.147-.198a.5.5 0 0 0-.189-.07m0 0a.13.13 0 0 0-.117.049a.13.13 0 0 1 .117-.049m59.609.883q-.068.005-.283.201a.2.2 0 0 0-.06.107q-.022.148.136.092a.255.34 9 0 0 .17-.166q.114-.24.037-.234m23.58.36q.677.495 1.293 1.042a.082.08 39.6 0 0 .119-.01l.01-.015l-.008.015a.082.08 39.6 0 0-.002 0a.082.08 39.6 0 1-.12.01q-.615-.547-1.292-1.043zm1.9.155l-.01.028zm-67.335.282q.28.011.463.08a.54.54 0 0 1 .267.195a.54.54 0 0 0-.267-.195a1.5 1.5 0 0 0-.463-.08m22.461.324q.67-.028 1.162.902q.184.348.513.563q.243.16.13.49a.664.669 30.3 0 0 .183.713q1.315 1.175 1.492 2.279q.068.413-.268.164a23.5 23.5 0 0 1-3.216-2.877a.39.439 16.7 0 1-.108-.23q-.11-.719-.748-1.157a.29.29 0 0 1-.012-.468q.468-.362.872-.38zm-21.809 1.037l.004.01a.123.144 57.2 0 0-.002 0c-.002-.003 0-.007-.002-.01m.045.049a.123.144 57.2 0 0 .025.01a.123.144 57.2 0 1-.025-.01m.09.013a.123.144 57.2 0 1-.022.002a.123.144 57.2 0 0 .022-.002m-18.445.203a1 1 0 0 1 .11 0a.26.26 0 0 1 .15.055a.17.17 0 0 1 .052.127a.17.17 0 0 0-.053-.127a.26.26 0 0 0-.15-.055a1 1 0 0 0-.11 0zm16.234.567a.8.8 0 0 0-.186.242a.8.8 0 0 1 .186-.242M17.17 33.946h.002l-.002.004zm-.832.74a.428.292 36.1 0 1 .082.233a.428.292 36.1 0 0-.082-.233m84.968.305a.359.351 62.5 0 1 .237.078q1.95 1.57 1.88 3.951q-.037 1.199-.62 1.826q-.579.621-1.49.52q-.702-.077-1.278-.676q-1.918-1.99-.334-4.707q.547-.936 1.605-.992m-84.294.535a.276.444 6.1 0 0 .11.227a.276.444 6.1 0 1-.11-.227m60.955.426v.008l-.28.914l.278-.914q0-.005.002-.008m-43.11.06a.2.2 0 0 1-.04.024a.2.2 0 0 0 .04-.024m-17.09.12a.39.388 16.2 0 1 .013.013a.39.388 16.2 0 0-.014-.014zm.103.175a.39.388 16.2 0 1 .006.018a.39.388 16.2 0 0-.006-.018m87.265.078q.651.77 1.31 1.64q1.218 1.612 2.473 3.198q.611.843 1.033 1.508a30 30 0 0 0-1.035-1.506a182 182 0 0 1-2.473-3.197a37 37 0 0 0-1.308-1.643m-88.222.002a.7.7 0 0 1 .378.166a.6.6 0 0 1 .176.36a.11.112 87.4 0 1-.008.058a.11.112 87.4 0 0 .008-.058a.62.62 0 0 0-.176-.36a.7.7 0 0 0-.378-.166m64.24.477a7 7 0 0 1-.53.023a7 7 0 0 0 .53-.023m-63.701.121a.11.112 87.4 0 1-.032.033a.11.112 87.4 0 0 .032-.033m-.045.043a.11.112 87.4 0 1-.06.012a.11.112 87.4 0 0 .06-.012m65.974.1q.717.01 1.435.158q.72.147 1.442.433l2.408.69q1.46.338 2.809 1.004q1.487.588 2.789 1.484q.903.624 2.476 1.938a27.1 27.1 0 0 1 5.854 6.853a.262.4 60.5 0 0 .468.031q.437-.24.926-.33q.487-.087.348.215a.164.4 72.9 0 1-.196.16l-.982.469a.166.148 67.1 0 0-.066.197a8 8 0 0 0 1.076 1.965a38 38 0 0 1 2.38 7.66a.281.476 39.2 0 1-.036.248q-.177.418.03 1.365q.04.184.052.375q.03.621.158 1.246q.098.49.029.928q-.115.726-.123.938q-.462 12.178-9.281 20.148q-5.912 5.346-14.03 6.562q-.024.004-.578.164a1.16 1.16 0 0 1-.667-.01a.55.55 0 0 0-.256-.019q-2.8.481-5.086.11q-1.047-.172-1.656-.102a.5.5 0 0 1-.254-.035a11.2 11.2 0 0 0-2.655-.783a28 28 0 0 0-2.261-.977a22.8 22.8 0 0 1-7.172-4.375q-6.042-5.43-8.389-13.65a1.4 1.4 0 0 1-.049-.27q-.101-1.366-.412-2.133a4.1 4.1 0 0 1-.285-1.216l.06-.803q.076-.981-1.113-1.006q-.48-.008-.037-.193q.429-.18.94.16q.158.105.142-.074l-.193-2.02a.314.19 22.8 0 0-.14-.197q-.323-.217 0-.436a.31.439 74.2 0 0 .156-.193q.222-.71.164-1.46v-.536l-.012-.004l.012.002a19 19 0 0 1 1.002-3.611a22.4 22.4 0 0 1 2.564-7.156q.35-.164.19-.526l1.06-1.348a16.4 16.4 0 0 1 3.834-4.617v.002l1.795-1.26a.6.6 0 0 0 .21-.21q.772-.445 1.579-.82a8.7 8.7 0 0 1 2.174-1.573q2.67-1 5.283-2.14a10.4 10.4 0 0 0 2.049-.41q3.875-1.189 7.634-.676q2.018.275 3.278.255a8.6 8.6 0 0 0-1.442-.433a7.6 7.6 0 0 0-1.435-.158m-32.3.142a.276.235 50.3 0 1 .189.121a31 31 0 0 0 2.295 2.797q.458.391.865.836q.31.335.297.621q-.022.422-.578.488a.39.337 54.3 0 1-.245-.058q-1.147-.72-2.511-2.256q-.843-.945-1.127-1.68a.25.166 61.7 0 1 .021-.238l.602-.578a.276.235 50.3 0 1 .191-.053zm17.417 2.504q.203-.015.42 0q-.87-.058-1.504.35a.68.685 32.6 0 1-.01.002a.68.685 32.6 0 0 .01-.004a2.3 2.3 0 0 1 1.084-.348m-1.773.434a2 2 0 0 0-.195.01a.7.7 0 0 0-.3.105a.7.7 0 0 1 .3-.106q.09-.011.195-.01zm-26.252.295q.365-.056.918.623q.325.602.871.962q.685.455.697.465q.996.784 1.979 1.582q.266.13.431.467a.244.244 0 0 1-.228.35q-1.796-.077-2.756-1.557a.375.394 83.6 0 0-.201-.152a2.64 2.64 0 0 1-1.531-1.264a.308.34 86.1 0 0-.194-.152a1.25 1.25 0 0 1-.459-.258a.227.246 25.7 0 1-.07-.227q.178-.785.543-.84zm24.869 1.54a.356.298 23.6 0 1-.238.07q-.485-.036-.696.206q.211-.242.698-.207a.356.298 23.6 0 0 .236-.068zm-2.129.03a.223.17 70.4 0 0 .178.117a.223.17 70.4 0 1-.178-.117M12.02 43.495a7 7 0 0 1-.756.857a2.17 2.17 0 0 1-.627 1.315a.187.324 55.1 0 0-.006.007a.187.324 55.1 0 1 .004-.01q.538-.54.63-1.312q.412-.397.755-.857m49.289.19q.06.052.072.128a.4.4 0 0 1-.02.178q-.065.197-.312.484c.162-.19.269-.354.312-.484a.4.4 0 0 0 .02-.178a.22.22 0 0 0-.072-.129zm-.901.74q.186.18.344.197q-.158-.015-.344-.198zm-47.566.087c.314.841.719 1.63 1.264 2.342c-.545-.71-.95-1.5-1.264-2.342m106.624.672q2.625-.162 4.315 1.967q.085.032.078.144l1.047.754q.324.234-.065.252q-1.032.052.145.883q.353.252.5.658q.302.843.26 2.05a.41.335 32.4 0 0 .08.241q.31.411-.371.324a.38.38 0 0 0 .203.233a.6.6 0 0 1 .115.068q.174.17-.107.156q.112.75-.05 1.477a.102.091 20.4 0 1-.142.057q-.24-.123-.398.049a.19.152 50 0 0 .006.214q.692 1-.375 1.748q-.04.579-.334.135q-.82.645.09.43a.132.251 71.2 0 1 .222.035q.042.053.043.135q.676.273.49.863a.148.155 16.6 0 1-.183.104l-.852-.24l-.882 1.066a.324.34 17.8 0 1-.223.12q-.503.057-.443.362q.261.265.152.567a.246.184 2.8 0 1-.19.128a1.3 1.3 0 0 0-.476.174q-.207.348-.68.535t-1.482.803q-.342.346-.86.324l-1.054-.006q-.471-.001-1.086-.251l-2.86-1.153q-.356-.145-1.085-.72q-3.28-2.582-2.573-6.788q.003-.015.022-.341q.016-.298.265-.496l.221-.4q-.017-.649.514-1.005a.67.67 0 0 1 .213-.545a.8.8 0 0 0 .256-.726q-.112-.335-.39-.24a.128.33 17.9 0 0-.15.187l-.39.865a.305.251 3.9 0 1-.207.147q-.23.044-.174-.207q.185-.806.88-1.34a.359.268 22.9 0 1 .241-.059q.53.057.86-.355a3.6 3.6 0 0 1 1.337-1.406q1.957-1.912 4.758-1.883h.002a7 7 0 0 1 .768-.094zm-108.934.701a.187.324 55.1 0 0 0 .006l.074.59l-.076-.592a.187.324 55.1 0 1 .002-.004m69.255.66a5.6 5.6 0 0 0-.932.059q-4.352.635-7.566 3.115q-1.404 1.086-1.543 2.963q-.05.682.346 1.158a3.2 3.2 0 0 0 1.224.908q1.077.466 2.233.567l1.014.17q.524.088 1.058-.096q.308-.107 1.94.053a.166.16.1 0 1 .148.144q.162 1.708.516 3.389q.1.475.1 1.27q-.004.65.157 1.287a.407.187 27.6 0 0 .149.193l.28.219a.43.43 0 0 1-.145.324a.8.8 0 0 1 .2.088a.4.4 0 0 1 .124.12a.4.4 0 0 0-.123-.12a.8.8 0 0 0-.201-.088q-.292.355-.125.76a.7.7 0 0 1 .058.254q.003 1.28.588 2.404a.091.089 73.8 0 1-.068.13q-2.352.224-2.46.208a2.9 2.9 0 0 0-1.616.199v.002l-.123.012v-.002a2.54 2.54 0 0 0-1.498-.262q-.646.087-1.018.016a28 28 0 0 0-2.686-.371a.5.5 0 0 1-.24-.092q-.637-.437-1.38-.16l-1.339.068v-.002q-1.035.121-1.85.728q-.6.448-.773.594a2.4 2.4 0 0 0-.603.791a11 11 0 0 1-.73 1.283a2.4 2.4 0 0 0-.42 1.385q.002.527.17 1.393q.181.944.806 1.709q.015.075.067.132v.002q.09.447.507.618a9 9 0 0 0 1.723 1.24a.246.19 39.1 0 0 .24.006a.35.35 0 0 0 .108-.131a.155.246 16.5 0 1 .156-.137q.192-.02.08.158q-.42.68.252.854q2.277.588 4.617.793a.185.19 85.5 0 1 .17.139q.17.67-.291 1.162a.316.394 62.9 0 0-.102.228a47 47 0 0 0 .088 4.299q.148 2.38.948 4.469q.325.856 1.007 1.267q2.122 1.277 4.41.38q.762-.304.944-.427q.466-.312.576-.943a.94.94 0 0 1 .23-.48q.252-.277.307-.405a6.9 6.9 0 0 0 .541-3.994a13.4 13.4 0 0 0-.172-4.55a.351.198 88.8 0 0-.129-.217q-.166-.093-.226.222q-.06.3-.295.3a.174.16 85.6 0 1-.16-.151a.63.63 0 0 1 .252-.631a.244.394 67.2 0 0 .144-.203q.108-.54-.484-.455q-.207.03-.252-.053a.107.166 69.6 0 1 .129-.172q1.084-.353 2.215-.478q.438-.049 1.076-.297a3.34 3.34 0 0 1 1.582-.203q.103.01 1.203-.268l.793-.201a219 219 0 0 0 4.537-1.832a5 5 0 0 0 .639-.32a5 5 0 0 0 .586-.4l.591-.786q.203-.269.725-.63q.43-.297.707-.765a19.4 19.4 0 0 0 2.51-3.31a31 31 0 0 1 .734-2.358q.086-.242 0-.369q-.12-.17-.435-.125q-.345.05-.06-.15q.222-.156.388-.086a.148.116 25.6 0 0 .175-.037q.45-.816.082-1.711q-.168-.416-.787-1.385q-.787-1.241-2.088-1.076a.385.346 55 0 1-.242-.055q-.283-.185-.56-.123v-.002q-2.392.525-4.533 2.315a1.5 1.5 0 0 1-.502.275q-1.427.453-2.875 1.274a34 34 0 0 0-3.48 1.466q-.022.01-.557.407q-.338.252-.83.14a1.6 1.6 0 0 1-.413-1.058v-.002q.191-.65-.255-1.147l-.012-1.193a28.3 28.3 0 0 0-.908-6.037q-.044-.49-.787-.766q-.153-.054.002-.097q1.255-.353 2.558-.674q.874-.218 2.707-1.508q1.32-.925 1.627-2.686q.26-1.475-.639-2.252q-.437-.375-1.884-.945a11.4 11.4 0 0 0-1.762-.533h-.002a5 5 0 0 0-.883-.102m11.688 26.09a5.3 5.3 0 0 1-1.225.72a219 219 0 0 1-4.537 1.833l-.83.592a.31.902 62.2 0 0-.38.4q-.292.798.278.46q.765-.45 1.592-.76q1.346-.504 1.635-.643a30 30 0 0 0 5.011-3.06a.16.193 58.7 0 0 .075-.208q-.12-.284-.432.059q-.447.492-1.187.607m20.701-26.027a.32.32 0 0 1-.002.195a.3.3 0 0 1-.045.088h-.002a.3.3 0 0 0 .047-.088a.32.32 0 0 0 .002-.195M9.88 47.11l-.017.025zm4.809.25h.002q.33.27.377.74q.023.216.11.307h-.003q-.085-.09-.107-.307a1.05 1.05 0 0 0-.38-.74zm-5.215.637l-.006.023l-.006.01l.004-.01zm-.248.521l-.004.022zm70.531.276a.4.4 0 0 1 .076.083a.4.4 0 0 0-.076-.084zm-70.162.03h.022q-.018 0-.035.003l.013-.002zm-.385.266l.002.01v.002l-.578.848a.324.362 56.3 0 0-.004.01a.324.362 56.3 0 1 .002-.01l.578-.85zm70.629.106a.078.082 14.1 0 0 .004.01a.078.082 14.1 0 1-.004-.01m2.805.191h.002a.13.158 48.4 0 1 .007.012a.13.158 48.4 0 0-.01-.012zm.017.026a.13.158 48.4 0 1 .006.013a.13.158 48.4 0 0-.006-.013m.01.029a.13.158 48.4 0 1 .002.031a.13.158 48.4 0 0-.002-.031m-.477.18a.642.645 19 0 1-.136.134a.642.645 19 0 0 .136-.134m-.156.15a.642.645 19 0 1-.178.086a.642.645 19 0 1-.203.027a.642.645 19 0 0 .203-.027a.642.645 19 0 0 .178-.086m-73.466.414a1.4 1.4 0 0 1-.057.578q-.09.3-.3.627l-.008.012l.005-.012a2.4 2.4 0 0 0 .303-.627q.09-.301.057-.578m.586.082q-.401.701-.565 1.197q.163-.496.565-1.197m30.89.055a1.2 1.2 0 0 1 .404.049q1.236.363 1.141 1.164a.321.323 19.4 0 0 .145.304q.618.396.505.94q-.077.372.188 1.474a2.2 2.2 0 0 1-.266 1.723a4.54 4.54 0 0 1-1.498 1.533a.33.303 34 0 1-.242.037l-1.73-.39a.38.433 79.5 0 1-.215-.127q-1.52-1.788-1.008-4.09a3.4 3.4 0 0 0 .043-.73q-.015-.482.299-.717a8.6 8.6 0 0 1 1.838-1.077q.196-.082.396-.093m16.711.517q.205.235.172.319q.032-.084-.172-.319m.168.323q-.017.037-.086.043q.07-.005.086-.043m52.525.195q-.432.913-.445 1.785q-.004.291.039.576a.447.466 52.2 0 1-.04.254q-.21.448-.208.744q-.002-.297.209-.744a.447.466 52.2 0 0 .037-.254a3.6 3.6 0 0 1-.037-.576q.012-.87.443-1.783zm-30.865.266l.01.003a.04.04 0 0 0-.02 0c.004 0 .007-.004.01-.003m-.022.007l-.007.004v-.002c.002-.002.005 0 .007-.002m-.039.036a.082.265 29.1 0 1-.074.091a.082.265 29.1 0 1-.064.041a.082.265 29.1 0 0 .064-.04a.082.265 29.1 0 0 .074-.092m.123.072a.089.105 58.8 0 1-.003.008a.089.105 58.8 0 0 .003-.008m-22.501.072a1 1 0 0 0-.2.123a.8.8 0 0 0-.252.357a.8.8 0 0 1 .452-.48m-.432.09a.281.47 66 0 1-.148.209a.281.47 66 0 0 .148-.21zm21.969.316q-.012.055-.028.108q.015-.052.028-.108m-2.918.131a.6.6 0 0 0 .047.133a.7.7 0 0 0 .078.127q.013.019.03.037q-.017-.018-.03-.037a.8.8 0 0 1-.106-.193zm-19.651.619a.196.214 23.6 0 0 .004.01a.196.214 23.6 0 1-.004-.01m19.92.078a.463.351 10.4 0 0-.115.04a.463.351 10.4 0 1 .115-.04m-.137.05a.463.351 10.4 0 0-.091.066a.463.351 10.4 0 1 .091-.067zm-69.538.833h.002v.006zm71.4.098a.289.385 30.9 0 1-.032.012a.289.385 30.9 0 0 .032-.012m-69.742.322l-.035.104l.035.027l-.035-.025l-.012.017l.01-.02c.015-.042.023-.061.037-.103m-.414.84l-.012.037zm46.908.39q.285.03.334.1q.023.035-.012.078q.034-.044.012-.078q-.048-.07-.334-.1m-47.07.448v.015q-.005.086-.719 2.49l-.008.028l.006-.027q.714-2.405.719-2.49zm100.5.515q-.09.047-.122.303a.346.262 34.5 0 0 .078.236q.105.127.156.25a.56.56 0 0 1-.004.479a.9.9 0 0 1-.16.229a.22.27 56.7 0 0-.074.226a.6.6 0 0 0 .059.152h-.002a.6.6 0 0 1-.057-.152a.22.27 56.7 0 1 .072-.226a.9.9 0 0 0 .162-.229a.56.56 0 0 0 .004-.479a1 1 0 0 0-.158-.25a.346.262 34.5 0 1-.078-.236q.033-.256.123-.303zm18.859.444a.105.094 23.4 0 1 .003 0a.105.094 23.4 0 0-.006.004a.105.094 23.4 0 1 .002-.004zm-18.372.166q.06.069.127.062q-.067.008-.127-.062m18.524.096q.057.001 0 .007q.056-.005 0-.007m-18.328.707q.052.04.105.127a.223.326 30.4 0 1 .016.244a.223.326 30.4 0 0-.018-.244a.5.5 0 0 0-.103-.127m-54.347.951a.26.26 0 0 1 .19.052a.166.239 27 0 1 .031.235a.166.239 27 0 0-.031-.235a.26.26 0 0 0-.19-.052m-.003.002a.212.201 4 0 0-.182.15a.212.201 4 0 1 .182-.15m54.765.152l.002.002q.239.685.402 1.375a13.2 13.2 0 0 1 .315 4.211l-.21 2.498h-.001l.209-2.5a13.2 13.2 0 0 0-.312-4.209q-.165-.691-.405-1.377m-102.445.117l-.004.053zm104.417.225l1.924 1.85l-1.924-1.848zm-.173.29v.003v-.002zm-104.246.167l.002.025a.105.077 78.1 0 0 .004.018a.105.077 78.1 0 1-.006-.018zm.018.08a.105.077 78.1 0 0 .012.016a.105.077 78.1 0 1-.012-.016m87.648.726a.394.407 21.6 0 1-.23.106a.394.407 21.6 0 0 .23-.106m.644.258a.23.268 14.2 0 0 .106.213a.23.268 14.2 0 1-.106-.213m1.695.112a.18.174 48.1 0 1 .122.058v.002a.18.174 48.1 0 0-.247-.017a.18.174 48.1 0 1 .125-.043m-2.734.103a4 4 0 0 1 .56.033a5 5 0 0 1-.374-.03a4 4 0 0 0-.723.042q-.176.026-.348.07q-.17.046-.336.108a3.6 3.6 0 0 0-.646.314a3.6 3.6 0 0 1 .646-.314a3.4 3.4 0 0 1 .684-.178a4 4 0 0 1 .537-.045m1.139.15a1 1 0 0 1 .148.07a1 1 0 0 0-.148-.07m-40.906.008v.032l.002.01l-.004-.01zm41.226.254a.3.3 0 0 1 .022.117a.3.3 0 0 0-.022-.117m-42.298.1l.002.012h-.002c-.002-.006.001-.007 0-.012m43.323.062a.166.193 65.9 0 1 .09.067a.166.193 65.9 0 0-.213-.065a.166.193 65.9 0 1 .123-.002m-.39.117a1.4 1.4 0 0 0-.358.274a1.4 1.4 0 0 0 .18-.16q.084-.063.178-.114m19.847.518q1.125.434 2.059.883a.3.305 9.5 0 0 0 .002a28 28 0 0 0-2.059-.885m-25.689.049a12 12 0 0 1-1.123.787a7 7 0 0 1 .389-.252q.63-.44.734-.535m2.721.406a.125.284 49.3 0 1-.002.004a.125.284 49.3 0 0 .002-.004m3.191.033a.212.209 32.7 0 0 .01.045a.212.209 32.7 0 1-.01-.045m-3.607.09a.125.284 49.3 0 0-.006.012a.125.284 49.3 0 1 .006-.012m.287.04a.125.284 49.3 0 0 0 .001a.125.284 49.3 0 1-.01.006a.125.284 49.3 0 0 .01-.008zm-.166.099a.125.284 49.3 0 1-.016.006a.125.284 49.3 0 0 .016-.006m-39.502.244a.442.401 32 0 0 .002 0a.442.401 32 0 0-.002.004a.442.401 32 0 1 0-.004m39.426.355a5 5 0 0 0-.49.99a5 5 0 0 0-.116.352a.73.73 0 0 0 .006.432a.73.73 0 0 1-.006-.432a5 5 0 0 1 .254-.693a5 5 0 0 1 .352-.649m-39.58.006q.015.174.076.356a.292.533 27.5 0 1 .006.252l-.129.595a.415.17 56.5 0 0 .05.25a.415.17 56.5 0 1-.052-.25l.129-.593a.292.533 27.5 0 0-.006-.252a1.5 1.5 0 0 1-.074-.358m39.125.143h.002l-.012.014zm-4.1.13a.8.8 0 0 0-.248.022a1 1 0 0 0-.242.098a1 1 0 0 1 .242-.098a.8.8 0 0 1 .248-.021zm-7.72.413h.005l-.011.004zm16.792.123a.148.17 21.6 0 1 .002.004h-.002a.148.17 21.6 0 0 0-.004m-1.308.23a.235.758 40.2 0 1 .004.014a.235.757 40.2 0 0-.004-.014m-7.215.243a.292.287 80.6 0 1 .174.054a.292.287 80.6 0 0-.174-.052h-.041zm7.16.025a.235.758 40.2 0 1-.033.066a.235.757 40.2 0 0 .033-.066m-6.98.035a.292.287 80.6 0 1 .107.149a.292.287 80.6 0 0-.107-.149m.793.281h.03zm-.532.071l.018.008zm-35.925.15q-.002.135-.172.46q.17-.326.172-.46m37.386.25a.321.268 57 0 1-.03.24a.321.268 57 0 0 .03-.24m4.477.055a.235.758 40.2 0 1-.016.006a.235.757 40.2 0 0 .016-.006m-.166.002a.235.757 40.2 0 0 .002.004a.235.757 40.2 0 0 .004.002a.235.758 40.2 0 1-.006 0a.235.758 40.2 0 1 0-.006m-25.994.277q-.04.073-.168.111q.127-.04.168-.11zm19.045.188a.112.118 10.1 0 0-.018.011a.112.118 10.1 0 1 .018-.011m-19.432.004a.091.089 70.6 0 0 .002 0a.091.089 70.6 0 0 .004.087l-.002-.002a.091.089 70.6 0 1-.004-.086zm10.291.021a.164.16 8.3 0 1 .008.002a.164.16 8.3 0 0-.008 0h-.037zm15.142.023l-.017.006zm-15.615.032l-.048.015zm-41.874.002q1.98.053 3.529.806q.332-.144.547.13a.39.171 4.8 0 0 .205.11l.338.087a.128.182 10.9 0 1 .088.195q-.14.792.572 1.138q.512.44 1.04.85q.179.135.2.262a.3.3 0 0 1-.068.252a.134.15 41.2 0 0 .002.183q.29.3.293.729a.401.487 23 0 0 .07.244a3.65 3.65 0 0 1 .592 1.629q.121.275.314.502a.157.423 2.2 0 1 .076.236l.211 1.72q.034.265-.017.401a40 40 0 0 1-.692 1.82l-.402 1.098q-.696 1.91-2.488 3.115a1.1 1.1 0 0 0-.295.293q-.367.524-.904.536a.6.6 0 0 0-.25.052q-1.617.765-3.043.66q-.471-.034-.578.338a.086.093 23.7 0 1-.135.059q-.722-.454-1.295-.328q-.63.135-1.037.111a31 31 0 0 0-.606-.031a3.1 3.1 0 0 1-1.763-.527a20 20 0 0 1-.813-.565a1.95 1.95 0 0 1-.6-.818a.24.246 84.1 0 0-.181-.145l-.47-.086a.364.298 73.9 0 1-.208-.142l-1.463-2.11a.412.405 45.7 0 1 0-.474q.165-.228-.027-.366q-.701.207-.559-.406a.54.54 0 0 0-.007-.254a.93.93 0 0 1 .1-.742l.468-2.342a1.6 1.6 0 0 1 .277-1.35l.258-.857q.808-2.845 3.154-4.627q.255-.421.725-.59q1.252-.565 3.473-.753q.709-.06 1.369-.043m53.771.049q-.185.186-.41.336v-.002q.225-.149.41-.334m.984.011l1.121.975a.281.31 64.8 0 0 .229.07a.281.31 64.8 0 1-.229-.068zm-13.086.016l-.035.018zm7.115.154a.091.16 87 0 1 .028.016a.091.16 87 0 0-.028-.016m-7.384.162v.008zm17.925.014l-.013.008zm.21.031l.01.004a.18.198 23.4 0 0 0 .002zm-10.854.004c-.1.046-.2.094-.291.15a2.4 2.4 0 0 0 .29-.15zm-14.088.09a.466.415 44.2 0 0 .25.01a.466.415 44.2 0 1-.25-.01m22.135.037a.182.278 29.5 0 1-.002.006a.182.278 29.5 0 1-.006.01a.182.278 29.5 0 0 .004-.01a.182.278 29.5 0 0 .004-.006m-20.514.037a.112.107 24.2 0 0 .002 0a.112.107 24.2 0 1 .004.01a.112.107 24.2 0 0-.006-.01m15.697 0a2.6 2.6 0 0 0-.271.326a2.3 2.3 0 0 0-.344.735a2.4 2.4 0 0 0-.07.408a.4.4 0 0 0 .004.129q.01.048.04.066t.079.004a.4.4 0 0 0 .115-.057a2.5 2.5 0 0 0 .434-.365a2.5 2.5 0 0 1-.434.365a.4.4 0 0 1-.115.057q-.048.014-.078-.004t-.041-.066a.4.4 0 0 1-.004-.13a2.3 2.3 0 0 1 .414-1.143q.12-.169.271-.325m-16.941.063a.3.3 0 0 1 .067.015a.2.2 0 0 0-.13-.014a.2.2 0 0 1 .063-.002zm1.258.048a.112.107 24.2 0 1-.002.012h-.002a.112.107 24.2 0 0 .004-.012m18.656.063a.24.24 0 0 0-.209.11a2 2 0 0 0-.275.654a2 2 0 0 0-.04.24a.303.251 80.3 0 1-.003.006a.303.251 80.3 0 0 .002-.006a2.2 2.2 0 0 1 .107-.469a2 2 0 0 1 .21-.426a.24.24 0 0 1 .208-.11zm.457.08a.54.54 0 0 1 .342.31a.54.54 0 0 0-.197-.24a1 1 0 0 0-.145-.07m-17.414.055q.096.051.19.078a.7.7 0 0 0 .37.008a.8.8 0 0 0-.185.021a.7.7 0 0 1-.185-.03a1 1 0 0 1-.19-.077m1.881.068a.38.228 74.8 0 1-.064.229a.38.228 74.8 0 0 .064-.229m6.094.06l-.002.007a7 7 0 0 0-.567.785a7 7 0 0 1 .268-.4q.141-.198.299-.385h-.002l.004-.006zm-11.381.012a1 1 0 0 0-.16.073a1 1 0 0 0-.123.082a.5.5 0 0 0-.09.095a.4.4 0 0 0-.074.227a.5.5 0 0 0 .015.13a.5.5 0 0 1-.015-.13a.4.4 0 0 1 .164-.322a1 1 0 0 1 .123-.082q.071-.039.16-.073m-3.203.114l-.033.017zm21.961.054a.9.9 0 0 1 .44.107a1 1 0 0 1-.212-.081a1 1 0 0 0-.228-.026m0 0q-.121 0-.252.03a3 3 0 0 0-.393.14a1.7 1.7 0 0 0-.3.168q.126-.09.3-.168q.173-.078.393-.14a1.2 1.2 0 0 1 .252-.03m-19.395.07a.36.36 0 0 1-.158.077a.7.7 0 0 1-.227.008l-.138-.016c.052.006.085.007.14.014a.7.7 0 0 0 .225-.006a.4.4 0 0 0 .158-.076zm8.785.008a1.4 1.4 0 0 0 .239.229a.6.6 0 0 0 .113.06a.35.35 0 0 0 .326-.023a.35.35 0 0 1-.326.023a.6.6 0 0 1-.113-.06a1 1 0 0 1-.118-.098a2 2 0 0 1-.12-.13zm-11.56.004c-.006.006-.014.008-.02.014v-.002zm6.558.004a.148.144 16 0 1 .053.004a.148.144 16 0 0-.172.094a.148.144 16 0 1 .12-.098zm20.127.01l.006.006l-.014-.004zm-26.04.002a.85.85 0 0 1 .48.148a.82.82 0 0 0-.584-.143q-.105.014-.217.05a1.1 1.1 0 0 1 .32-.055zm12.113.01h.002l-.004.006zm-1.984.164a.7.7 0 0 1 .16.01a.56.56 0 0 1 .263.123q.057.048.103.113a1 1 0 0 1 .084.148q.039.084.067.184a.265.308 50.8 0 1-.043.236a.265.308 50.8 0 0 .043-.236a1.3 1.3 0 0 0-.067-.184a1 1 0 0 0-.084-.148a.6.6 0 0 0-.226-.194a.6.6 0 0 0-.14-.043a.7.7 0 0 0-.16-.01zm1.806.002a2.5 2.5 0 0 0-.309.236a2.3 2.3 0 0 0-.637.951h-.001q.069-.189.164-.357a2.3 2.3 0 0 1 .783-.83m-10.643.085a.12.152 19.5 0 1 .06 0a.12.152 19.5 0 0-.16.1a.12.152 19.5 0 1 .1-.1m.907.255a.257.193 7.9 0 1 .171.168a.257.193 7.9 0 0-.171-.168m10.765.08a14 14 0 0 1-.59 1.326a14 14 0 0 0 .59-1.326m-10.592.1a.26.26 0 0 1-.017.144a.26.26 0 0 0 .017-.145zm4.973.025a.08.086 14.1 0 1 .008.004a.08.086 14.1 0 0-.008-.002h-.014zm.074.056a.08.086 14.1 0 1 .004.022a.08.086 14.1 0 0-.004-.022m18.465.167a.3.3 0 0 1 .014.116a.5.5 0 0 1-.038.15a.25.41 75.8 0 1-.175.18a.25.41 75.8 0 0 .175-.18a.5.5 0 0 0 .038-.15a.3.3 0 0 0-.014-.117zm-6.354.214a.24.24 0 0 0-.203.15a.24.24 0 0 1 .203-.15m-34.677.043a.346.342 25.3 0 0 .184.197h-.002a.346.342 25.3 0 1-.182-.197m18.668.04a.174.246 47.3 0 1 .006 0a.174.246 47.3 0 0-.006.001l-.074.055q.036-.03.074-.057zm3.357.105a.396.37 62.4 0 1-.066.242a.396.37 62.4 0 0 .066-.242m-31.605.086a.19.16 4 0 0-.172.125a.19.16 4 0 1 .172-.125m33.797.234h.002zm-7.46.101a.7.7 0 0 0-.171.159a.4.4 0 0 0-.08.173a.4.4 0 0 0 .01.192a.7.7 0 0 0 .101.21q.083.128.166.22a2 2 0 0 1-.168-.22a.7.7 0 0 1-.1-.21a.4.4 0 0 1-.01-.192a.4.4 0 0 1 .08-.173a.7.7 0 0 1 .173-.159zm3.26.036l-.021.052zm-.048.144l-.008.033a.72.704 75.3 0 1-.203.358H71.6a.72.704 75.3 0 0 .203-.358zm14.115.078a.7.7 0 0 0-.098.198a.5.5 0 0 0 .033.384a.52.52 0 0 1-.033-.385a.7.7 0 0 1 .098-.197m-16.172.08a.359.251 57.6 0 1-.012.233a.359.251 57.6 0 0 .012-.233m-17.006.07a.246.182 56.9 0 0 0 .01a.246.182 56.9 0 1 0-.01m64.625.018q-.001.165-.116 2.045l-.001.002q.116-1.88.117-2.047m-74.64.024q.037.27-.02.316q-.059.045-.21-.137q.151.181.21.137q.057-.045.02-.316m10.062.131a.246.182 56.9 0 0 .004.005a.246.182 56.9 0 0-.002 0a.246.182 56.9 0 1-.002-.005m28.56.066a10 10 0 0 1-.586 1.373a10 10 0 0 1 .586-1.373m-15.019.082a.316.244 9.2 0 0-.21.115a.316.244 9.2 0 1 .21-.115m13.129.03a7 7 0 0 0-.78 1.364q-.145.809-.312.067a.4.4 0 0 0 .313-.067a7.2 7.2 0 0 1 .779-1.365zm11.029.077a.808.811 42.3 0 0-.072.375a.808.811 42.3 0 0 .105.366a.808.811 42.3 0 1-.105-.366a.808.811 42.3 0 1 .072-.375m-20.941.25l-.063.065zm-1.19.012a.28.28 0 0 0-.27.08a13 13 0 0 0-.972 1.157a13 13 0 0 1 .973-1.156a.28.28 0 0 1 .27-.08zm4.977.035a.337.278 52.9 0 0-.01.243l.164.468v.006l-.002-.006l-.162-.468a.337.278 52.9 0 1 .01-.243m-4.757.032a1 1 0 0 1 .116.054a1 1 0 0 0-.117-.054zm-1.218.148q-.157.274-.334.502q-.056.076-.375.316q.32-.24.375-.316q.178-.228.334-.502m1.506.084a.3.3 0 0 1 .02.102a.4.4 0 0 1-.02.119a.4.4 0 0 0 .02-.12a.3.3 0 0 0-.02-.1zm1.988.051l-.029.047zm6.184.1l-.082.128q.044-.066.082-.129zm-2.104.01a1.9 1.9 0 0 0-.49.509q-.067.106-.187.687q.119-.58.185-.687a1.9 1.9 0 0 1 .492-.51zm-5.894.025h.002a.207.185 60.3 0 0-.047.21a.207.185 60.3 0 1 .045-.21m5.23.045a6 6 0 0 1-.591 1.24a1.4 1.4 0 0 1-.272.316a1.3 1.3 0 0 0 .146-.145q.069-.079.126-.171a6.3 6.3 0 0 0 .591-1.24m-1.289.158a.8.8 0 0 1 .244.043a1 1 0 0 0-.166-.037a.6.6 0 0 0-.15 0a.5.5 0 0 0-.254.117a.7.7 0 0 0-.103.117a.7.7 0 0 1 .103-.117a.5.5 0 0 1 .326-.123m-19.714.228a.262.26 7 0 0 .004.006a.262.26 7 0 1-.004-.006m-.327.168q.187.398-.134.688q.322-.29.134-.688m17.471.262a.407.388 78.4 0 1-.133.215h-.002a.407.388 78.4 0 0 .135-.215m-1.615.082a2.3 2.3 0 0 0-.395.451a2 2 0 0 0 .18-.234q.099-.114.215-.217m16.451.04a.594.592 41.7 0 0-.049.264a.594.592 41.7 0 1 .049-.263zm-14.643.018a.257.225.1 0 0-.162.145a.257.225.1 0 1 .162-.145m14.596.272a.594.592 41.7 0 0 .076.252a.594.592 41.7 0 1-.076-.252m-41.761.037l-.012.01zm9.148.022q-.053.185-.14.236q.087-.048.14-.236m13.543.029a1.33 1.33 0 0 1-.648.486a1.7 1.7 0 0 1-.432.09a.086.093 74.6 0 0-.01.004a.086.093 74.6 0 1 .01-.006q.234-.018.431-.088a1.33 1.33 0 0 0 .649-.486m3.678.146h.002l-.041.045zm-17.59.01q.13.103.222.057q-.092.047-.222-.057m.673.229l.296.21q.11.12.2.254a2.4 2.4 0 0 0-.202-.251a8 8 0 0 0-.293-.213zm20.924.052a1.4 1.4 0 0 0-.205.149a.34.34 0 0 0-.095.125a.4.4 0 0 0-.012.226a.4.4 0 0 1 .012-.227a.34.34 0 0 1 .095-.124q.075-.069.205-.149m2.213.02l-.05.111zm-11.043.154a.086.093 74.6 0 0-.011.022a.086.093 74.6 0 1 .011-.022m20.24.059l-.03.021zm-.224.123l-.016.008c-.01.003-.014.002-.023.006l.023-.008zm-9.162.033l-.057.092q.03-.045.057-.092m-21.879.243q-.021.15-.078.21q.058-.06.078-.21m15.1.019l-.061.093zm6.562.066l-.066.086zm-4.772.037a.372.337 7.7 0 1-.193.135a.372.337 7.7 0 0 .193-.135m7.268.102a.278.433 49.2 0 0-.074.242l.047.52v.021l-.002-.021l-.045-.52a.278.433 49.2 0 1 .074-.242m-4.475.03a.142.144 56.1 0 1-.003.007a.142.144 56.1 0 0 .003-.008zm-.058.064a4 4 0 0 0-.346.205a3 3 0 0 0-.299.226a3 3 0 0 1 .3-.226q.16-.108.345-.205m-6.555.111a1.7 1.7 0 0 1-.256.357a2 2 0 0 1 .139-.168q.064-.089.117-.19zm4.338.105l-.035.055a.337.335 31 0 0-.002 0zm-2.627.037l-.025.05a2.4 2.4 0 0 1-.188.269l-.01.015c.004-.005.004-.01.008-.015q.155-.206.188-.27zm-15.34.42a.116.196 45.3 0 0-.054.198a.116.196 45.3 0 1 .054-.198m12.989.133a.094.104 50.4 0 0-.004.016a.094.104 50.4 0 1 .004-.016m5.865.155a.12.182 35.6 0 0 0 .019a.12.182 35.6 0 1 0-.02zm2.556.253q-.106.39-.22.774q-.239.793.562 1.117a.305.3 1.4 0 1 .172.18q.29.794-.262.341q-.72-.587-.45.32q.315 1.07.288 2.19a.428.385 30.7 0 0 .074.24q.439.641.305 1.45q-.04.25.248 1.26a.39.265 89.7 0 0 .143.21q.203.126.3-.111a.6.6 0 0 0 .018-.316a10.6 10.6 0 0 1-.107-2.516q-.176-1.811-.309-4.08a.86.86 0 0 0-.11-.377q-.232-.417-.105-.625q.988-.084 1.744.785q.285.324.793.19a.126.155 75.2 0 1 .182.084a.5.5 0 0 1 .004.2a.255.5 25.6 0 0 .006.257q.956 2.673.803 5.466q-.134 2.466-.153 2.63a5.4 5.4 0 0 1-.965 2.509q-.441.62-1.19.889a2.63 2.63 0 0 1-1.417.105q-.953-.184-1.514-.924q-.462-.607-.884-1.763a5.1 5.1 0 0 1-.311-1.985q-.27-1.378-.53-2.76l.118-.855a.337.223 37.3 0 0-.08-.226q-.27-.331-.028-.713q.413-.176.284-.684a4.4 4.4 0 0 1-.133-1.076q0-.56.353-.979q.899-1.072 2.371-1.207m-30.122.811l-.024.127q.013-.063.024-.127m38.001.424a2.4 2.4 0 0 0-.539.068q-.944.23-1.92.291q-.785.174-.396.748a.24.268 74.8 0 0 .215.106q1.447.005 2.857-.319q.653.086 1.086-.384q.283-.308-.135-.368l-.86-.123a2 2 0 0 0-.308-.02zm-27.814.183a.112.123 58.6 0 1-.02.075h-.001a.112.123 58.6 0 0 .021-.075m16.705 2.418a.128.14 9.8 0 0-.018.014a.128.14 9.8 0 1 .018-.014m7.734.559a.153.13 25.8 0 1 .01.002a.153.13 25.8 0 0-.018.004a.153.13 25.8 0 1 .008-.006m.264.16v.008zm36.355 2.168c-.184.775-.37 1.541-.57 2.244h-.002c.2-.703.388-1.469.572-2.244m-44.314.275q.144-.004.346.139a.14.14 0 0 1 .027.207q-.415.51-.613.06a.292.265 49.6 0 1 .008-.25q.088-.152.232-.156m29.804 1.569q-.456.538-.931 1.035h-.002q.476-.497.933-1.035M33.08 84.819l.026.002c-.009-.002-.017.001-.026 0l-.068.002zm65.944 1.222a23 23 0 0 1-3.025 2.355q-.839.55-1.798 1.09v-.002a31 31 0 0 0 1.797-1.087a23 23 0 0 0 3.025-2.356zm15.071 1.977q.063.25.323.426v.002a.74.74 0 0 1-.323-.428m-.509.994h.002q-.14.179-.217.418q-.077.24-.09.539c0 .004-.006.013-.006.017l.004-.017q.015-.3.092-.54q.076-.239.215-.417m-57.057.562a7.8 7.8 0 0 1 1.584.98v.003a7.7 7.7 0 0 0-1.584-.983m42.957.067q-1.074 1.095-2.17 1.95a16.6 16.6 0 0 1-2.213 1.474v-.002q1.118-.615 2.213-1.471q1.096-.856 2.17-1.951m-43.134.137q.226.011-.06.468q-1.465 2.314-1.606 2.867a2.83 2.83 0 0 1-1.051 1.604a.63.63 0 0 1-.371.146q-.447.019-.166-.529q.48-.53.681-1.213q.456-1.53 1.159-2.967q.1-.457.623-.318a.993 1.004 43.8 0 0 .582-.016a.6.6 0 0 1 .209-.043zm56.708.892c-.144.32-.356.713-.646 1.191a.19.217 41.1 0 0 0 .229q.217.29.623.14q-.407.15-.625-.138a.19.217 41.1 0 1 0-.23q.433-.714.648-1.192m-53.761 1.031l.148.137zm-14.46.137q.378.026.1.285a3.43 3.43 0 0 0-1.005 1.742q-.043.18-.39.428a.324.332 78.3 0 0-.137.203a4.17 4.17 0 0 1-1.133 2.069a.203.225 33.8 0 1-.225.056q-.498-.182-.289-.781q.201-.583.672-.711a.093.107 67 0 0 .068-.146l-.103-.163a.332.23 41.7 0 1-.057-.232q.178-.778.574-1.475q.493-1.378 1.924-1.275zm31.979 1.158q.945.064 1.897 0q.763.12 1.527.235q.142.022.897.017q-.755.006-.897-.015q-.764-.117-1.527-.237q-.952.064-1.897 0m34.715.473a2.6 2.6 0 0 0-.191.715l-.004.008l.002-.008q.053-.403.193-.715M6.943 95.424l.493.47v.003l-.492-.471a.198.305 18.5 0 0 0-.002zm22.917.049q.265.015.094.332a10 10 0 0 0-.823 1.3a8 8 0 0 1-.82 1.278a33 33 0 0 0-1.6 2.139q-.193.179-.279.011a.22.33 37.4 0 1 .018-.25q1.11-2.412 3.168-4.71a.308.3 22 0 1 .242-.1m57.628.416a35 35 0 0 1-5.177.715l.388.18a.223.137 18.6 0 1 .133.16q-.009.527-.371 1.136q-.339.575-.494 1.656h-.002l-.242.92a.196.22 4.3 0 1-.16.155l-.909.156a.198.227 69.5 0 1-.213-.08q-.3-.434-.082-.95h.002a.53.53 0 0 1 .461-.289a.08.08 0 0 0 .069-.117q-.197-.423.132-.949a4.9 4.9 0 0 0 .635-1.572a.64.64 0 0 1 .586-.428l.067.022a34.6 34.6 0 0 0 5.177-.715m8.872.77q.085-.004.241.105a.439.244 48.5 0 0 .24.086l.5-.022a.112.102 2.6 0 1 .118.117q-.112.605-.719.858a.203.203 0 0 1-.27-.12q-.37-1.013-.11-1.025zm-28.913.853l.065.031l.021.016l-.021-.014zm28.602.226q.03-.022.084.002a.128.193 7.1 0 1 .084.166q0 .554.771.452a.18.177.3 0 1 .201.2a22 22 0 0 1-.74 3.237q-.225.728-.764-.105a.83.824 34.7 0 1-.115-.62q.078-.37.186-1.068a4 4 0 0 1 .22-2.014a.7.7 0 0 0 .034-.158q.007-.069.039-.092m-26.89.6l.027.008l.062.021c-.02-.008-.042-.011-.062-.02zm8.479 1.162c.19.013.26.02.46.033l.093.02c-.031-.007-.064-.01-.095-.018c-.283-.02-.194-.017-.457-.035zm1.782.274l.082.011v.002zm.607.195l.032.004zm27.744.119a2 2 0 0 1-.293.375a3.3 3.3 0 0 0-.535.687h-.002q.177-.32.535-.687a2 2 0 0 0 .295-.375m-47.427.469q.305-.037.701.093a.118.118 0 0 1 .068.166a31 31 0 0 0-1.332 2.842q-.797 1.955-2.32 3.192q-.428.345-.324-.196q.152-.799.685-1.008a.126.134 67.9 0 0 .077-.17l-.15-.4a.33.314 46.5 0 1 0-.246a23 23 0 0 1 2.081-3.893q.23-.347.514-.38m10.652 1.109q.287-.054.152.41a16 16 0 0 1-.593 1.678q-.083.198-.45 1.256a5.6 5.6 0 0 1-.59 1.209q-.427.666-.597.845a1.9 1.9 0 0 1-.94.524q-.472.115-.232-.307q.084-.141.319-.275a.265.287 78.6 0 0 .138-.194a7.1 7.1 0 0 1 .947-2.445q.217-.766.637-1.437q.246-.792.97-1.172a1 1 0 0 1 .24-.092zm19.72.785a33 33 0 0 1-2.44 1.432a10 10 0 0 1-.37 1.265q-.209.571-.31 1.262a7 7 0 0 1-1.034 2.762q-.427.672-.693-.076q-.283-.797.158-1.977q.285-.768.487-1.562v-.002q.364-1.049.412-1.405q.128-.935 1.32-1.13a.193.207 4.6 0 1 .211.263l-.182.6q1.252-.664 2.442-1.432zm-78.612.203a1.3 1.3 0 0 1 .496.026q.677.166.717.172v.002a30 30 0 0 1-.717-.172a1.4 1.4 0 0 0-.496-.028m2.41.666c.215.11.446.234.59.276v.002c-.145-.042-.374-.167-.59-.278m32.236.61a.33.33 0 0 1 .307.435a3.4 3.4 0 0 1-.772 1.283a5.9 5.9 0 0 0-1.18 1.788a.455.294 59.5 0 0-.011.253q.134.554-.639.954q-.497.259-.582-.297q-.069-.45.278-1.229q.986-2.239 1.37-2.633q.557-.57 1.23-.554zm38.777 1.466a1.5 1.5 0 0 0-.324.11v-.002q.162-.074.324-.108m-71.905.018q.438.314.632.59q-.193-.276-.632-.59m7.271.162c.27.126.541.245.8.395v.002c-.26-.15-.53-.271-.8-.397m57.199 2.033q.762.004.271.946h.002a16 16 0 0 1-1.207 1.927q-.285.39-.658 1.176a4.2 4.2 0 0 1-1.111 1.44a.152.16 45.9 0 1-.205.002q-.312-.278-.164-.711l2.076-4.371a.503.583 7.9 0 1 .347-.307a2.6 2.6 0 0 1 .649-.102m-61.248.469q.027.072.205.197q-.179-.124-.205-.197m17.014.4q.356-.055.135.512a8.5 8.5 0 0 1-1.565 2.6q-.131.15-.34.787q-.154.3-.662.953q-.834 1.07-.742-.418q.984-1.757 1.244-2.49q.447-1.266 1.627-1.836a1.2 1.2 0 0 1 .303-.107zm65.72 1.026a.144.144 0 0 0 .062.16q-.084-.06-.062-.16m-72.208.906q.65.297.904.457c.232.149.448.262.668.385c-.22-.123-.436-.235-.668-.383a9 9 0 0 0-.904-.459m-6.653.1q1.899 1.225 3.91 2.38a95 95 0 0 0 4.135 2.24a95 95 0 0 1-4.135-2.24a88 88 0 0 1-3.91-2.38m78.6.125a.4.38 5.3 0 0 .001 0zm-2.208.851h.002q-.536.516-1.08 1.164q-.117.145-.193.313h-.002a1.5 1.5 0 0 1 .195-.313q.542-.648 1.078-1.164m-64.161 1.041q.224.082.464.112q.665.079.91.177q-.245-.099-.91-.175a2 2 0 0 1-.464-.114m40.55.067q-.82.59-1.605.67q.783-.082 1.605-.67m-17.39.338q.537.039.199.6q-.17.288-.205.85v.003a1.3 1.3 0 0 1-.485.744a.5.5 0 0 0-.168.193a9.9 9.9 0 0 1-1.949 2.756q-.015.016-.234.3q-.196.252-.488.11a.396.405 30.3 0 1-.147-.582l2.066-3.054q.314-.348.454-.803q.201-.637.712-1.037a.335.38 30.4 0 1 .245-.08m-11.723.453a.498.348 49.4 0 1 .25.064q.203.112.42.166a1.7 1.7 0 0 1-.422-.164a.498.348 49.4 0 0-.248-.064zm1.121.28q1.407.263 2.826.45a8.9 8.9 0 0 1 2.64.182q.374.08.843.049v.002a3 3 0 0 1-.842-.05a8.9 8.9 0 0 0-2.64-.18a52 52 0 0 1-2.827-.454zm-7.455.173q.024.004.047.01v.002zm42.736.41q.499.004.06.969a.255.375 83.6 0 1-.187.16q-.356.147-.228.549q.174.551-.268.877a.177.184 62.7 0 0-.066.199q.273.867-.463 1.517a2.8 2.8 0 0 1-1.059.547a6.6 6.6 0 0 1 .592-2.408q.134-1.005.648-1.853q.198-.322.534-.453q.27-.105.437-.104m-15.345.211q.265-.03.548.07q-.008.168-.318.674a114 114 0 0 1-2.107 3.315q-.24.358-.381-.045q-.207-.575.146-1.13q.626-1.45 1.6-2.69h.002q.245-.164.51-.194m.89.187q-.11.142-.195.114q.084.03.195-.114m-22.504.21q.306-.105.356.263q.102.739-.4 1.328q-.477.556-.606.84q-.36.798-.695 1.606q-.161.385-.375.474q-.285.12-.676-.04a.26.26 0 0 1-.143-.339a16 16 0 0 1 2.262-3.908a.66.66 0 0 1 .277-.225zm47.555.714h.002a4 4 0 0 0-.442.573a.264.259 13.3 0 0-.002 0a4 4 0 0 1 .442-.573m-3.356.004h.002zm-.35 2.024a.307.303 14.7 0 0 .003 0h-.002zm-56.015.433a.5.5 0 0 0 .131.114v.002a.5.5 0 0 1-.13-.116zm22.512 7.326a6.3 6.3 0 0 0-1.078.116l-.002-.002q.54-.104 1.08-.114"/></svg>